<svg width="21" height="20" viewBox="0 0 21 20" fill="none" xmlns="http://www.w3.org/2000/svg">
<path fill-rule="evenodd" clip-rule="evenodd" d="M20.5991 7.44213L20.6788 7.70529C20.7444 7.90391 20.6892 8.12465 20.5392 8.26318L15.6926 12.6316L17.1286 19.1788C17.1772 19.3881 17.1026 19.6078 16.9391 19.7367L16.7197 19.8946C16.6345 19.9652 16.5288 20.0023 16.4206 19.9999C16.3292 20.0019 16.2393 19.9763 16.1613 19.9262L10.7063 16.421L5.28119 19.9262C5.20319 19.9763 5.11322 20.0019 5.0219 19.9999C4.91365 20.0023 4.80794 19.9652 4.72273 19.8946L4.47341 19.7367C4.30991 19.6078 4.23531 19.3881 4.28393 19.1788L5.71998 12.6316L0.883293 8.2737C0.725563 8.136 0.665857 7.90913 0.733704 7.70529L0.843402 7.44213C0.901731 7.23416 1.07709 7.08693 1.2822 7.07372L7.65467 6.53688L10.0979 0.336955C10.1762 0.131058 10.3664 -0.0027956 10.5766 0.000116994H10.8359C11.0442 -0.00454821 11.2324 0.130692 11.3046 0.336955L13.7878 6.53688L20.1603 7.07372C20.3654 7.08693 20.5407 7.23416 20.5991 7.44213ZM14.815 16.9052L13.6981 11.9789L17.358 8.68423L12.5612 8.28423L10.7063 3.58955V14.2631L14.815 16.9052Z" fill="#F2DA06"/>
</svg>
