<svg width="22" height="20" viewBox="0 0 22 20" fill="none" xmlns="http://www.w3.org/2000/svg">
<path d="M13.7886 5.94472L13.7886 5.94482C14.0156 6.48365 14.5265 6.84804 15.1086 6.89415L20.6844 7.33576C21.1947 7.37618 21.3797 7.99045 21.0089 8.30427L16.7608 11.8993L16.7607 11.8993C16.3143 12.2772 16.117 12.8727 16.2544 13.4419L17.5523 18.8172C17.664 19.2797 17.1481 19.6817 16.7049 19.4144C16.7049 19.4143 16.7049 19.4143 16.7049 19.4143L11.9312 16.5338C11.4314 16.2321 10.8037 16.2321 10.3038 16.5338C10.3038 16.5338 10.3038 16.5338 10.3038 16.5338L5.53015 19.4143C5.08699 19.6817 4.57103 19.2797 4.6827 18.8172L5.98059 13.4419C5.98059 13.4419 5.98059 13.4419 5.98059 13.4419C6.11804 12.8727 5.92087 12.2772 5.47436 11.8993L5.47432 11.8993L1.22612 8.30427C0.855296 7.99046 1.04026 7.37618 1.55061 7.33576L7.12644 6.89415C7.70857 6.84805 8.21952 6.48366 8.44642 5.94472L10.5946 0.842378C10.7868 0.385874 11.4483 0.385873 11.6405 0.84238L13.7886 5.94472Z" fill="#F2DA06" stroke="#F2DA06"/>
</svg>
